<svg width="32" height="32" viewBox="0 0 32 32" fill="none" xmlns="http://www.w3.org/2000/svg">
  <!-- Fond avec dégradé -->
  <rect width="32" height="32" rx="6" fill="url(#gradient)"/>
  
  <!-- Définition du dégradé -->
  <defs>
    <linearGradient id="gradient" x1="0" y1="0" x2="32" y2="32" gradientUnits="userSpaceOnUse">
      <stop offset="0%" stop-color="#2563eb"/>
      <stop offset="100%" stop-color="#1e40af"/>
    </linearGradient>
  </defs>
  
  <!-- Lettre S simplifiée -->
  <path d="M10 17 C10 19 11 20 13 20 C15 20 16 19 16 17 C16 15 15 14.5 13 14 C11 13.5 10 13 10 11 C10 9 11 8 13 8 C15 8 16 9 16 11" 
        stroke="white" 
        stroke-width="2" 
        stroke-linecap="round" 
        fill="none"/>
  
  <!-- Lettre P simplifiée -->
  <path d="M18 20 L18 8 L21 8 C23 8 24 9 24 11 C24 13 23 14 21 14 L18 14" 
        stroke="white" 
        stroke-width="2" 
        stroke-linecap="round" 
        fill="none"/>
</svg>
