<svg width="512" height="512" viewBox="0 0 512 512" fill="none" xmlns="http://www.w3.org/2000/svg">
  <!-- Fond avec dégradé -->
  <rect width="512" height="512" rx="110" fill="url(#gradient)"/>
  
  <!-- Définition du dégradé -->
  <defs>
    <linearGradient id="gradient" x1="0" y1="0" x2="512" y2="512" gradientUnits="userSpaceOnUse">
      <stop offset="0%" stop-color="#2563eb"/>
      <stop offset="100%" stop-color="#1e40af"/>
    </linearGradient>
  </defs>
  
  <!-- Lettre S -->
  <path d="M160 280 C160 310 180 330 210 330 C240 330 260 310 260 280 C260 250 240 240 210 230 C180 220 160 210 160 180 C160 150 180 130 210 130 C240 130 260 150 260 180" 
        stroke="white" 
        stroke-width="28" 
        stroke-linecap="round" 
        stroke-linejoin="round"
        fill="none"/>
  
  <!-- Lettre P -->
  <path d="M290 330 L290 130 L340 130 C370 130 390 150 390 180 C390 210 370 230 340 230 L290 230" 
        stroke="white" 
        stroke-width="28" 
        stroke-linecap="round" 
        stroke-linejoin="round"
        fill="none"/>
</svg>
